<svg width="50" height="50" viewBox="0 0 50 50" fill="none" xmlns="http://www.w3.org/2000/svg">
<path d="M0.260498 1.04156V36.4582L25 48.9582L49.7397 36.4582V1.04156H0.260498ZM25 9.3749C27.0721 9.3749 29.0593 10.0334 30.5244 11.2055C31.9894 12.3776 32.8125 13.9672 32.8125 15.6249V20.8332H35.4168V32.2916H14.5834V20.8332H17.1875V15.6249C17.1875 13.9672 18.0107 12.3776 19.4758 11.2055C20.941 10.0334 22.928 9.3749 25 9.3749ZM25 12.4999C23.9641 12.4999 22.9705 12.8291 22.238 13.4152C21.5053 14.0012 21.0938 14.7961 21.0938 15.6249V20.8332H28.9063V15.6249C28.9063 14.7961 28.4947 14.0012 27.7622 13.4152C27.0297 12.8291 26.0361 12.4999 25 12.4999Z" fill="white"/>
</svg>
