<svg width="50" height="50" viewBox="0 0 50 50" fill="none" xmlns="http://www.w3.org/2000/svg">
<path d="M10.263 1.11115C9.35862 1.11093 8.79933 1.65924 8.28796 2.75618C7.66563 4.34212 7.20953 5.51849 6.9242 7.01393L4.47354 8.48958C4.3151 8.39008 4.13157 8.3356 3.94722 8.33337C3.03713 8.33337 2.12704 8.33337 1.21696 8.33337C0.699509 8.38504 0.260788 8.89587 0.263009 9.44448V17.2222C0.263088 17.804 0.764504 18.3333 1.31564 18.3333H3.94722C4.13705 18.3333 4.32684 18.2795 4.48999 18.1771L5.85512 18.9931C5.65742 23.6892 5.52938 28.1343 5.5262 31.6667H4.47357C4.48262 36.4688 4.47357 40 4.47357 44.4445H7.10514V48.8889H14.9999V44.4445H34.9999V48.8889H42.8946V44.4445H45.5262V31.6667H44.4571C44.4571 27.2917 44.3052 22.8365 44.1281 19.2361L45.5755 18.2118C45.7226 18.291 45.8875 18.3331 46.0525 18.3333H48.6841C49.2352 18.3333 49.7367 17.804 49.7367 17.2222V9.44448C49.7367 8.86271 49.2352 8.33343 48.6841 8.33337C47.7788 8.33337 46.8512 8.33337 45.9538 8.33337C45.8041 8.34671 45.6572 8.39448 45.5262 8.47226L43.0755 6.99657C42.775 5.57718 42.3131 4.06101 41.7438 2.79457C41.2312 1.67218 40.6695 1.11115 39.7531 1.11115C28.95 1.11098 18.6975 1.11098 10.263 1.11115ZM12.1545 6.66671C20.3918 6.66671 28.8075 6.66671 37.1051 6.66671C39.2104 6.65949 40.3181 7.42426 40.7729 9.3056C41.2872 12.7843 41.9238 16.3461 42.3847 19.4789C41.9791 20.6257 41.473 21.7703 40.9209 22.6039C40.63 22.9724 40.263 23.3331 39.7367 23.3331L10.2136 23.3158C9.68735 23.2593 9.36356 22.912 9.06235 22.5867C8.38138 21.5543 7.95962 20.4789 7.61501 19.479C8.1366 16.0979 8.67681 12.7194 9.21038 9.34015C9.7367 7.77071 10.3521 6.6966 12.1545 6.66671ZM12.1874 7.77782C10.848 7.71793 10.494 8.5893 10.263 9.53125L8.70051 19.3924C9.06247 20.4596 9.44856 21.3845 10.1972 22.2049L39.7367 22.2221C40.5506 21.4517 40.9092 20.4615 41.2992 19.3922L39.7367 9.53125C39.4138 7.72892 38.1577 7.77071 37.1051 7.77782C28.8208 7.77782 20.4333 7.77226 12.1874 7.77782ZM6.66104 8.43754C6.14228 11.6425 6.02735 14.8836 5.90446 17.934L4.99985 17.2222C4.99985 14.6297 4.99985 12.0371 4.99985 9.44458L6.66104 8.43754ZM43.3551 8.43754L44.9999 9.44448V17.2222C44.8299 17.5079 44.3734 17.7285 44.0788 17.934C43.961 14.8857 43.8742 11.6389 43.3551 8.43754ZM17.3518 25.5382H32.615V26.6493H17.3518V25.5382ZM17.3518 27.7604H32.615V28.8715H17.3518V27.7604ZM17.3518 29.9827H32.615V31.0938H17.3518V29.9827ZM7.53275 33.3333C9.1353 33.3329 10.7587 33.3333 12.3683 33.3333C12.8585 33.3338 13.3201 33.7438 13.4045 34.2535L14.4571 40.9202C14.5621 41.5561 14.0324 42.2217 13.4209 42.2222H7.63143C7.08029 42.2222 6.57888 41.6929 6.5788 41.1111V34.4445C6.5767 33.8958 7.0153 33.3849 7.53275 33.3333ZM15.3781 33.3333C15.3837 33.3333 15.3891 33.3333 15.3946 33.3333C15.4055 33.3332 15.4166 33.3332 15.4275 33.3333C21.7674 33.3332 28.1267 33.3333 34.4735 33.3333C35.0785 33.3333 35.6042 33.9874 35.5097 34.6181L34.4571 41.2847C34.3797 41.8007 33.9158 42.2204 33.4209 42.2222H16.5788C16.0838 42.2222 15.62 41.8007 15.5426 41.2847L14.49 34.6181C14.6155 33.9833 14.8656 33.4303 15.3781 33.3333ZM37.5327 33.3333C39.1354 33.3333 40.7587 33.3333 42.3683 33.3333C42.9195 33.3335 43.4208 33.8627 43.4209 34.4445V41.1111C43.4208 41.6929 42.9195 42.2222 42.3683 42.2222H36.5788C35.9674 42.2222 35.4376 41.5561 35.5426 40.9202L36.5952 34.2535C36.6721 33.7761 37.0762 33.3796 37.5327 33.3333ZM8.68406 35.5556V40H12.1874L11.4801 35.5556H8.68406ZM16.7762 35.5556L16.9406 36.6667H33.0591L33.2235 35.5556H16.7762ZM38.5196 35.5556L37.8124 40H41.3156V35.5556H38.5196ZM17.3025 38.8889L17.467 40H32.5327L32.6972 38.8889H17.3025Z" fill="white"/>
</svg>
