<svg width="50" height="40" viewBox="0 0 50 40" fill="none" xmlns="http://www.w3.org/2000/svg">
<path fill-rule="evenodd" clip-rule="evenodd" d="M50 1.31366V38.6865H0V1.31366H50ZM9.84924 16.3471H16.9981C18.2364 16.3471 19.2482 17.5934 19.2482 19.1174V20.8812C19.2482 22.4052 18.2364 23.6515 16.9981 23.6515H9.84924C8.61159 23.6515 7.59901 22.4052 7.59901 20.8812V19.1174C7.59901 17.5934 8.61159 16.3471 9.84924 16.3471ZM40.1667 7.7361C44.7919 7.7361 44.793 16.3929 40.1667 16.3929C38.9314 16.3929 37.845 15.6083 37.2176 14.4232C36.5902 15.6083 35.505 16.3929 34.2691 16.3929C29.6423 16.3929 29.6434 7.7361 34.2691 7.7361C35.505 7.7361 36.5902 8.52064 37.2176 9.7058C37.845 8.52064 38.9314 7.7361 40.1667 7.7361Z" fill="white"/>
</svg>
