<svg width="50" height="45" viewBox="0 0 50 45" fill="none" xmlns="http://www.w3.org/2000/svg">
<path d="M47.1498 0H36.0783V13.5C36.0783 13.7569 36.0346 14.0113 35.9496 14.2487C35.8647 14.4861 35.7401 14.7018 35.583 14.8835C35.4261 15.0651 35.2397 15.2093 35.0346 15.3076C34.8294 15.4059 34.6096 15.4565 34.3875 15.4565H24.4049C24.1829 15.4565 23.963 15.4059 23.7579 15.3076C23.5528 15.2093 23.3664 15.0651 23.2093 14.8835C23.0523 14.7018 22.9278 14.4861 22.8428 14.2487C22.7578 14.0113 22.714 13.7569 22.714 13.5V0H11.6426C11.1941 0 10.7641 0.206134 10.447 0.573053C10.1299 0.939971 9.95175 1.43762 9.95175 1.95652V32.4783H4.87929C4.43086 32.4783 4.00079 32.6845 3.68369 33.0514C3.36661 33.4183 3.18847 33.9159 3.18847 34.4348C3.18847 34.9537 3.36661 35.4513 3.68369 35.8182C4.00079 36.1851 4.43086 36.3913 4.87929 36.3913H9.95175V41.0869H2.85031C2.40188 41.0869 1.97181 41.2931 1.65471 41.66C1.33762 42.0269 1.15948 42.5245 1.15948 43.0435C1.15948 43.5624 1.33762 44.06 1.65471 44.4269C1.97181 44.7938 2.40188 45 2.85031 45H47.1498C47.5983 45 48.0283 44.7938 48.3454 44.4269C48.6625 44.06 48.8407 43.5624 48.8407 43.0435V1.95652C48.8407 1.43762 48.6625 0.939971 48.3454 0.573053C48.0283 0.206134 47.5983 0 47.1498 0Z" fill="white"/>
</svg>
